<svg width="13" height="15" viewBox="0 0 13 15" fill="none" xmlns="http://www.w3.org/2000/svg">
<path d="M6.125 7.5C7.05326 7.5 7.9435 7.13125 8.59987 6.47487C9.25625 5.8185 9.625 4.92826 9.625 4C9.625 3.07174 9.25625 2.1815 8.59987 1.52513C7.9435 0.868749 7.05326 0.5 6.125 0.5C5.19674 0.5 4.3065 0.868749 3.65013 1.52513C2.99375 2.1815 2.625 3.07174 2.625 4C2.625 4.92826 2.99375 5.8185 3.65013 6.47487C4.3065 7.13125 5.19674 7.5 6.125 7.5ZM4.87539 8.8125C2.18203 8.8125 0 10.9945 0 13.6879C0 14.1363 0.363672 14.5 0.812109 14.5H11.4379C11.8863 14.5 12.25 14.1363 12.25 13.6879C12.25 10.9945 10.068 8.8125 7.37461 8.8125H4.87539Z" fill="#A3A3A3"/>
</svg>
