<svg width="111" height="24" viewBox="0 0 111 24" fill="none" xmlns="http://www.w3.org/2000/svg">
<path d="M24 4C28.4187 4 32 7.58125 32 12C32 16.4187 28.4187 20 24 20H12C7.58125 20 4 16.4187 4 12C4 7.58125 7.58125 4 12 4H24ZM36 12C36 5.375 30.625 0 24 0H12C5.375 0 0 5.375 0 12C0 18.625 5.375 24 12 24H24C30.625 24 36 18.625 36 12Z" fill="#6D28D9"/>
<circle cx="12" cy="12.0312" r="5" fill="#6D28D9"/>
<path d="M53.7153 14.2302C53.7153 15.1736 53.5923 16.011 53.3462 16.7424C53.1001 17.4739 52.7412 18.0925 52.2695 18.5984C51.7979 19.0974 51.2305 19.4802 50.5674 19.7468C49.9043 20.0066 49.1558 20.1365 48.3218 20.1365C47.5425 20.1365 46.8281 20.0066 46.1787 19.7468C45.5293 19.4802 44.9653 19.0974 44.4868 18.5984C44.0151 18.0925 43.6494 17.4739 43.3896 16.7424C43.1299 16.011 43 15.1736 43 14.2302C43 12.9792 43.2153 11.9197 43.646 11.0515C44.0835 10.1765 44.7056 9.51001 45.5122 9.052C46.3188 8.59399 47.2793 8.36499 48.3936 8.36499C49.4395 8.36499 50.3623 8.59399 51.1621 9.052C51.9619 9.51001 52.5874 10.1765 53.0386 11.0515C53.4897 11.9265 53.7153 12.9861 53.7153 14.2302ZM45.4814 14.2302C45.4814 15.0574 45.5806 15.7649 45.7788 16.3528C45.9839 16.9407 46.2983 17.3918 46.7222 17.7063C47.146 18.0139 47.6929 18.1677 48.3628 18.1677C49.0327 18.1677 49.5796 18.0139 50.0034 17.7063C50.4272 17.3918 50.7383 16.9407 50.9365 16.3528C51.1348 15.7649 51.2339 15.0574 51.2339 14.2302C51.2339 13.4031 51.1348 12.7024 50.9365 12.1282C50.7383 11.5471 50.4272 11.1062 50.0034 10.8054C49.5796 10.4978 49.0293 10.344 48.3525 10.344C47.3545 10.344 46.6265 10.679 46.1685 11.3489C45.7104 12.0188 45.4814 12.9792 45.4814 14.2302Z" fill="#F8FAFC"/>
<path d="M62.1543 10.4158H59.396V19.9314H56.9863V10.4158H55.1304V9.25708L56.9863 8.54956V7.76001C56.9863 6.79614 57.1367 6.03052 57.4375 5.46313C57.7451 4.89575 58.1826 4.48901 58.75 4.24292C59.3242 3.98999 60.0078 3.86353 60.8008 3.86353C61.3203 3.86353 61.7954 3.90796 62.2261 3.99683C62.6567 4.07886 63.019 4.17456 63.313 4.28394L62.6875 6.10913C62.4551 6.03394 62.1953 5.96558 61.9082 5.90405C61.6211 5.83569 61.3135 5.80151 60.9854 5.80151C60.4385 5.80151 60.0352 5.97241 59.7754 6.31421C59.5225 6.65601 59.396 7.15503 59.396 7.81128V8.58032H62.1543V10.4158ZM69.7524 10.4158H66.9941V19.9314H64.5845V10.4158H62.7285V9.25708L64.5845 8.54956V7.76001C64.5845 6.79614 64.7349 6.03052 65.0356 5.46313C65.3433 4.89575 65.7808 4.48901 66.3481 4.24292C66.9224 3.98999 67.606 3.86353 68.3989 3.86353C68.9185 3.86353 69.3936 3.90796 69.8242 3.99683C70.2549 4.07886 70.6172 4.17456 70.9111 4.28394L70.2856 6.10913C70.0532 6.03394 69.7935 5.96558 69.5063 5.90405C69.2192 5.83569 68.9116 5.80151 68.5835 5.80151C68.0366 5.80151 67.6333 5.97241 67.3735 6.31421C67.1206 6.65601 66.9941 7.15503 66.9941 7.81128V8.58032H69.7524V10.4158Z" fill="#F8FAFC"/>
<path d="M81.4678 15.998C81.8584 15.998 82.1689 15.9219 82.3994 15.7695C82.6338 15.6133 82.8037 15.375 82.9092 15.0547C83.0146 14.7344 83.0693 14.3281 83.0732 13.8359V13.7539C83.0732 13.0273 82.9561 12.4746 82.7217 12.0957C82.4873 11.7129 82.0654 11.5215 81.4561 11.5215C80.9404 11.5215 80.5576 11.7148 80.3076 12.1016C80.0576 12.4883 79.9326 13.0508 79.9326 13.7891C79.9326 14.5195 80.0557 15.0703 80.3018 15.4414C80.5518 15.8125 80.9404 15.998 81.4678 15.998ZM81.1162 17.1172C80.335 17.1172 79.7061 16.8359 79.2295 16.2734C78.7529 15.7109 78.5146 14.8789 78.5146 13.7773C78.5146 12.6797 78.7568 11.8418 79.2412 11.2637C79.7256 10.6855 80.3896 10.3965 81.2334 10.3965C81.7061 10.3965 82.0947 10.4805 82.3994 10.6484C82.708 10.8164 82.9619 11.0664 83.1611 11.3984H83.2432C83.2744 11.2578 83.3213 11.1055 83.3838 10.9414C83.4502 10.7773 83.5283 10.6348 83.6182 10.5137H84.7432C84.6846 10.6895 84.6279 10.916 84.5732 11.1934C84.5186 11.4707 84.4736 11.7734 84.4385 12.1016C84.4033 12.4258 84.3857 12.75 84.3857 13.0742V15.2539C84.3857 15.5234 84.4346 15.7109 84.5322 15.8164C84.6299 15.918 84.749 15.9688 84.8896 15.9688C84.9482 15.9688 85.0127 15.9629 85.083 15.9512C85.1572 15.9355 85.2119 15.9199 85.2471 15.9043V16.9648C85.208 16.9883 85.1475 17.0117 85.0654 17.0352C84.9834 17.0586 84.8936 17.0781 84.7959 17.0938C84.6982 17.1094 84.6064 17.1172 84.5205 17.1172C84.1689 17.1172 83.8857 17.0449 83.6709 16.9004C83.4561 16.7559 83.2959 16.4922 83.1904 16.1094H83.0908C82.9697 16.293 82.8213 16.4609 82.6455 16.6133C82.4736 16.7656 82.2627 16.8887 82.0127 16.9824C81.7627 17.0723 81.4639 17.1172 81.1162 17.1172ZM87.8252 17H86.4424V7.88281H87.8252V17ZM93.1221 10.3906C93.8916 10.3906 94.5088 10.6719 94.9736 11.2344C95.4424 11.7969 95.6768 12.6328 95.6768 13.7422C95.6768 14.4766 95.5674 15.0957 95.3486 15.5996C95.1338 16.0996 94.8311 16.4785 94.4404 16.7363C94.0537 16.9902 93.6025 17.1172 93.0869 17.1172C92.7588 17.1172 92.4736 17.0742 92.2314 16.9883C91.9893 16.9023 91.7822 16.791 91.6104 16.6543C91.4385 16.5137 91.2939 16.3613 91.1768 16.1973H91.0947C91.1143 16.3535 91.1318 16.5273 91.1475 16.7188C91.167 16.9062 91.1768 17.0781 91.1768 17.2344V19.877H89.7939V10.5137H90.9189L91.1123 11.4102H91.1768C91.2979 11.2266 91.4443 11.0566 91.6162 10.9004C91.792 10.7441 92.0029 10.6211 92.249 10.5312C92.499 10.4375 92.79 10.3906 93.1221 10.3906ZM92.7529 11.5156C92.374 11.5156 92.0693 11.5918 91.8389 11.7441C91.6123 11.8926 91.4463 12.1172 91.3408 12.418C91.2393 12.7188 91.1846 13.0957 91.1768 13.5488V13.7422C91.1768 14.2227 91.2256 14.6309 91.3232 14.9668C91.4248 15.2988 91.5908 15.5527 91.8213 15.7285C92.0557 15.9004 92.3721 15.9863 92.7705 15.9863C93.1064 15.9863 93.3838 15.8945 93.6025 15.7109C93.8252 15.5273 93.9912 15.2656 94.1006 14.9258C94.21 14.5859 94.2646 14.1855 94.2646 13.7246C94.2646 13.0254 94.1396 12.4824 93.8896 12.0957C93.6436 11.709 93.2646 11.5156 92.7529 11.5156ZM98.6475 7.88281V10.1738C98.6475 10.4121 98.6396 10.6445 98.624 10.8711C98.6123 11.0977 98.5986 11.2734 98.583 11.3984H98.6592C98.7959 11.1719 98.9639 10.9863 99.1631 10.8418C99.3623 10.6934 99.585 10.582 99.8311 10.5078C100.081 10.4336 100.347 10.3965 100.628 10.3965C101.124 10.3965 101.546 10.4805 101.894 10.6484C102.241 10.8125 102.507 11.0684 102.69 11.416C102.878 11.7637 102.972 12.2148 102.972 12.7695V17H101.595V13.0273C101.595 12.5234 101.491 12.1465 101.284 11.8965C101.077 11.6426 100.757 11.5156 100.323 11.5156C99.9053 11.5156 99.5732 11.6035 99.3271 11.7793C99.085 11.9512 98.9111 12.207 98.8057 12.5469C98.7002 12.8828 98.6475 13.293 98.6475 13.7773V17H97.2705V7.88281H98.6475ZM107.442 10.3906C108.263 10.3906 108.882 10.5723 109.3 10.9355C109.722 11.2988 109.933 11.8652 109.933 12.6348V17H108.954L108.69 16.0801H108.644C108.46 16.3145 108.271 16.5078 108.075 16.6602C107.88 16.8125 107.653 16.9258 107.396 17C107.142 17.0781 106.831 17.1172 106.464 17.1172C106.077 17.1172 105.731 17.0469 105.427 16.9062C105.122 16.7617 104.882 16.543 104.706 16.25C104.53 15.957 104.442 15.5859 104.442 15.1367C104.442 14.4688 104.69 13.9668 105.187 13.6309C105.687 13.2949 106.44 13.1094 107.448 13.0742L108.573 13.0332V12.6934C108.573 12.2441 108.468 11.9238 108.257 11.7324C108.05 11.541 107.757 11.4453 107.378 11.4453C107.054 11.4453 106.739 11.4922 106.435 11.5859C106.13 11.6797 105.833 11.7949 105.544 11.9316L105.099 10.959C105.415 10.791 105.774 10.6543 106.177 10.5488C106.583 10.4434 107.005 10.3906 107.442 10.3906ZM108.567 13.9004L107.729 13.9297C107.042 13.9531 106.56 14.0703 106.282 14.2812C106.005 14.4922 105.866 14.7812 105.866 15.1484C105.866 15.4688 105.962 15.7031 106.153 15.8516C106.345 15.9961 106.597 16.0684 106.909 16.0684C107.386 16.0684 107.78 15.9336 108.093 15.6641C108.409 15.3906 108.567 14.9902 108.567 14.4629V13.9004Z" fill="#A3A3A3"/>
</svg>
