<svg width="231" height="76" viewBox="0 0 231 76" fill="none" xmlns="http://www.w3.org/2000/svg">
<path d="M64 16.6667C75.7833 16.6667 85.3333 26.2167 85.3333 38C85.3333 49.7833 75.7833 59.3333 64 59.3333H32C20.2167 59.3333 10.6667 49.7833 10.6667 38C10.6667 26.2167 20.2167 16.6667 32 16.6667H64ZM96 38C96 20.3333 81.6667 6 64 6H32C14.3333 6 0 20.3333 0 38C0 55.6667 14.3333 70 32 70H64C81.6667 70 96 55.6667 96 38Z" fill="#F8FAFC"/>
<circle cx="32" cy="38.0833" r="13.3333" fill="#6D28D9"/>
<path d="M164.072 39.7988C164.072 43.9798 163.553 47.7897 162.514 51.2285C161.475 54.6426 159.891 57.5866 157.764 60.0605C155.661 62.5345 152.989 64.4395 149.748 65.7754C146.507 67.0866 142.673 67.7422 138.244 67.7422C133.816 67.7422 129.981 67.0866 126.74 65.7754C123.499 64.4395 120.815 62.5345 118.688 60.0605C116.585 57.5866 115.014 54.6302 113.975 51.1914C112.936 47.7526 112.416 43.9303 112.416 39.7246C112.416 34.1087 113.331 29.2227 115.162 25.0664C117.018 20.8854 119.863 17.6445 123.697 15.3438C127.532 13.043 132.406 11.8926 138.318 11.8926C144.206 11.8926 149.043 13.043 152.828 15.3438C156.638 17.6445 159.458 20.8854 161.289 25.0664C163.145 29.2474 164.072 34.1582 164.072 39.7988ZM124.477 39.7988C124.477 43.584 124.947 46.8496 125.887 49.5957C126.852 52.3171 128.348 54.4199 130.377 55.9043C132.406 57.3639 135.028 58.0938 138.244 58.0938C141.51 58.0938 144.157 57.3639 146.186 55.9043C148.214 54.4199 149.686 52.3171 150.602 49.5957C151.542 46.8496 152.012 43.584 152.012 39.7988C152.012 34.1087 150.948 29.6309 148.82 26.3652C146.693 23.0996 143.192 21.4668 138.318 21.4668C135.077 21.4668 132.43 22.209 130.377 23.6934C128.348 25.153 126.852 27.2559 125.887 30.002C124.947 32.7233 124.477 35.9889 124.477 39.7988ZM197.359 34.0098H187.562V67H176.244V34.0098H170.01V28.5547L176.244 25.5117V22.4688C176.244 18.931 176.838 16.1849 178.025 14.2305C179.238 12.2513 180.932 10.8659 183.109 10.0742C185.311 9.25781 187.909 8.84961 190.902 8.84961C193.104 8.84961 195.108 9.03516 196.914 9.40625C198.72 9.7526 200.192 10.1484 201.33 10.5938L198.436 18.9062C197.57 18.6341 196.63 18.3867 195.615 18.1641C194.601 17.9414 193.438 17.8301 192.127 17.8301C190.544 17.8301 189.381 18.3125 188.639 19.2773C187.921 20.2174 187.562 21.4297 187.562 22.9141V25.5117H197.359V34.0098ZM226.787 34.0098H216.99V67H205.672V34.0098H199.438V28.5547L205.672 25.5117V22.4688C205.672 18.931 206.266 16.1849 207.453 14.2305C208.665 12.2513 210.36 10.8659 212.537 10.0742C214.739 9.25781 217.337 8.84961 220.33 8.84961C222.532 8.84961 224.536 9.03516 226.342 9.40625C228.148 9.7526 229.62 10.1484 230.758 10.5938L227.863 18.9062C226.997 18.6341 226.057 18.3867 225.043 18.1641C224.029 17.9414 222.866 17.8301 221.555 17.8301C219.971 17.8301 218.809 18.3125 218.066 19.2773C217.349 20.2174 216.99 21.4297 216.99 22.9141V25.5117H226.787V34.0098Z" fill="#F8FAFC"/>
</svg>
