<svg width="14" height="17" viewBox="0 0 14 17" fill="none" xmlns="http://www.w3.org/2000/svg">
<path d="M14 3V4.5C14 5.88125 10.8656 7 7 7C3.13438 7 0 5.88125 0 4.5V3C0 1.61875 3.13438 0.5 7 0.5C10.8656 0.5 14 1.61875 14 3ZM12.2875 7.20937C12.9375 6.97813 13.5344 6.68125 14 6.31563V9.5C14 10.8813 10.8656 12 7 12C3.13438 12 0 10.8813 0 9.5V6.31563C0.465625 6.68438 1.0625 6.97813 1.7125 7.20937C3.11562 7.70937 4.98438 8 7 8C9.01562 8 10.8844 7.70937 12.2875 7.20937ZM0 11.3156C0.465625 11.6844 1.0625 11.9781 1.7125 12.2094C3.11562 12.7094 4.98438 13 7 13C9.01562 13 10.8844 12.7094 12.2875 12.2094C12.9375 11.9781 13.5344 11.6813 14 11.3156V14C14 15.3813 10.8656 16.5 7 16.5C3.13438 16.5 0 15.3813 0 14V11.3156Z" fill="#A3A3A3"/>
</svg>
