<svg width="16" height="16" viewBox="0 0 16 16" fill="none" xmlns="http://www.w3.org/2000/svg">
<path opacity="0.7" d="M12.9981 6.49905C12.9981 7.93321 12.5325 9.25802 11.7483 10.3329L15.7039 14.2917C16.0945 14.6822 16.0945 15.3165 15.7039 15.7071C15.3134 16.0976 14.6791 16.0976 14.2885 15.7071L10.3329 11.7483C9.25802 12.5357 7.93321 12.9981 6.49905 12.9981C2.90895 12.9981 0 10.0891 0 6.49905C0 2.90895 2.90895 0 6.49905 0C10.0891 0 12.9981 2.90895 12.9981 6.49905ZM6.49905 10.9984C7.08991 10.9984 7.67499 10.882 8.22087 10.6559C8.76676 10.4298 9.26276 10.0984 9.68056 9.68056C10.0984 9.26276 10.4298 8.76676 10.6559 8.22087C10.882 7.67499 10.9984 7.08991 10.9984 6.49905C10.9984 5.90819 10.882 5.32311 10.6559 4.77722C10.4298 4.23134 10.0984 3.73534 9.68056 3.31753C9.26276 2.89973 8.76676 2.56831 8.22087 2.3422C7.67499 2.11609 7.08991 1.99971 6.49905 1.99971C5.90819 1.99971 5.32311 2.11609 4.77722 2.3422C4.23134 2.56831 3.73534 2.89973 3.31753 3.31753C2.89973 3.73534 2.56831 4.23134 2.3422 4.77722C2.11609 5.32311 1.99971 5.90819 1.99971 6.49905C1.99971 7.08991 2.11609 7.67499 2.3422 8.22087C2.56831 8.76676 2.89973 9.26276 3.31753 9.68056C3.73534 10.0984 4.23134 10.4298 4.77722 10.6559C5.32311 10.882 5.90819 10.9984 6.49905 10.9984Z" fill="#F8FAFC"/>
</svg>
