<svg width="20" height="20" viewBox="0 0 20 20" fill="none" xmlns="http://www.w3.org/2000/svg">
<g clip-path="url(#clip0_109_21)">
<path fill-rule="evenodd" clip-rule="evenodd" d="M10.6559 18.9043C10.2538 18.6564 9.74625 18.6564 9.34413 18.9043L8.93591 19.1559C8.36775 19.506 7.62468 19.3481 7.24806 18.7971L6.97749 18.4013C6.71094 18.0113 6.24731 17.8048 5.77915 17.8676L5.30389 17.9315C4.6424 18.0203 4.02783 17.5738 3.90789 16.9173L3.82171 16.4455C3.73684 15.9809 3.39725 15.6038 2.94399 15.4708L2.48386 15.3358C1.84344 15.1478 1.4636 14.4899 1.62109 13.8414L1.73423 13.3754C1.84569 12.9163 1.68886 12.4337 1.32888 12.1278L0.963447 11.8173C0.454816 11.3852 0.375409 10.6297 0.783078 10.1012L1.07597 9.72153C1.3645 9.34752 1.41755 8.8428 1.21309 8.41698L1.00553 7.9847C0.716643 7.38304 0.951393 6.66055 1.53876 6.3436L1.96076 6.11588C2.37646 5.89155 2.63021 5.45205 2.61663 4.97988L2.60284 4.50055C2.58365 3.8334 3.09196 3.26886 3.75746 3.21821L4.2356 3.18183C4.70661 3.14598 5.11719 2.84768 5.29683 2.4108L5.47919 1.96731C5.733 1.35003 6.427 1.04105 7.05556 1.26546L7.50716 1.42669C7.95204 1.58553 8.44844 1.48001 8.79024 1.15397L9.13723 0.822991C9.62016 0.362317 10.3798 0.362317 10.8628 0.822992L11.2098 1.15397C11.5516 1.48001 12.048 1.58553 12.4928 1.42669L12.9444 1.26546C13.573 1.04105 14.267 1.35003 14.5209 1.96731L14.7031 2.4108C14.8829 2.84768 15.2934 3.14598 15.7644 3.18183L16.2425 3.21821C16.908 3.26886 17.4164 3.8334 17.3971 4.50055L17.3834 4.97988C17.3698 5.45205 17.6235 5.89155 18.0393 6.11588L18.4613 6.3436C19.0486 6.66055 19.2834 7.38304 18.9945 7.9847L18.7869 8.41698C18.5825 8.8428 18.6355 9.34752 18.924 9.72153L19.2169 10.1012C19.6246 10.6297 19.5451 11.3852 19.0365 11.8173L18.6711 12.1278C18.3111 12.4337 18.1543 12.9163 18.2658 13.3754L18.3789 13.8414C18.5364 14.4899 18.1566 15.1478 17.5161 15.3358L17.056 15.4708C16.6028 15.6038 16.2631 15.9809 16.1783 16.4455L16.0921 16.9173C15.9721 17.5738 15.3576 18.0203 14.6961 17.9315L14.2209 17.8676C13.7526 17.8048 13.2891 18.0113 13.0225 18.4013L12.7519 18.7971C12.3753 19.3481 11.6323 19.506 11.0641 19.1559L10.6559 18.9043Z" fill="#6D28D9"/>
<path d="M6.33746 9.45332L8.98911 12.105L14.2924 6.80167" stroke="#F8FAFC" stroke-width="2"/>
</g>
<defs>
<clipPath id="clip0_109_21">
<rect width="20" height="20" fill="white"/>
</clipPath>
</defs>
</svg>
