<svg width="10" height="8" viewBox="0 0 10 8" fill="none" xmlns="http://www.w3.org/2000/svg">
<path d="M4.60768 0C4.86125 0 5.09518 0.133929 5.22375 0.353571L9.08089 6.925C9.21125 7.14643 9.21125 7.41964 9.08447 7.64107C8.95768 7.8625 8.72018 8 8.46482 8H0.750538C0.49518 8 0.25768 7.8625 0.130895 7.64107C0.00410905 7.41964 0.00589476 7.14464 0.134466 6.925L3.99161 0.353571C4.12018 0.133929 4.35411 0 4.60768 0ZM4.60768 2.28571C4.37018 2.28571 4.17911 2.47679 4.17911 2.71429V4.71429C4.17911 4.95179 4.37018 5.14286 4.60768 5.14286C4.84518 5.14286 5.03625 4.95179 5.03625 4.71429V2.71429C5.03625 2.47679 4.84518 2.28571 4.60768 2.28571ZM5.17911 6.28571C5.17911 6.13416 5.1189 5.98882 5.01174 5.88165C4.90458 5.77449 4.75923 5.71429 4.60768 5.71429C4.45613 5.71429 4.31078 5.77449 4.20362 5.88165C4.09646 5.98882 4.03625 6.13416 4.03625 6.28571C4.03625 6.43727 4.09646 6.58261 4.20362 6.68978C4.31078 6.79694 4.45613 6.85714 4.60768 6.85714C4.75923 6.85714 4.90458 6.79694 5.01174 6.68978C5.1189 6.58261 5.17911 6.43727 5.17911 6.28571Z" fill="#F8FAFC"/>
</svg>
